<?xml version="1.0" encoding="utf-8"?>
<!-- Generator: Adobe Illustrator 21.0.0, SVG Export Plug-In . SVG Version: 6.00 Build 0)  -->
<svg version="1.1" id="Layer_1" xmlns="http://www.w3.org/2000/svg" xmlns:xlink="http://www.w3.org/1999/xlink" x="0px" y="0px"
	 viewBox="0 0 200 200" style="enable-background:new 0 0 200 200;" xml:space="preserve">
<style type="text/css">
	.st0{fill:#FFFFFF;}
</style>
<g id="Icons">
	<g id="Black" transform="translate(-200.000000, -160.000000)">
		<path id="Facebook" class="st0" d="M306.8,360H211c-6.1,0-11-4.9-11-11V171c0-6.1,4.9-11,11-11H389c6.1,0,11,4.9,11,11V349
			c0,6.1-4.9,11-11,11h-51v-77.5h26l3.9-30.2H338v-19.3c0-8.7,2.4-14.7,15-14.7l16,0v-27c-2.8-0.4-12.3-1.2-23.3-1.2
			c-23,0-38.8,14.1-38.8,39.9v22.3h-26.1v30.2h26.1V360L306.8,360z"/>
	</g>
</g>
</svg>
