<?xml version="1.0" encoding="utf-8"?>
<!-- Generator: Adobe Illustrator 21.0.0, SVG Export Plug-In . SVG Version: 6.00 Build 0)  -->
<svg version="1.1" id="Layer_1" xmlns="http://www.w3.org/2000/svg" xmlns:xlink="http://www.w3.org/1999/xlink" x="0px" y="0px"
	 viewBox="0 0 200 200" style="enable-background:new 0 0 200 200;" xml:space="preserve">
<style type="text/css">
	.st0{fill:#FFFFFF;}
</style>
<g>
	<path class="st0" d="M199.4,59.2c-0.5-10.5-2.2-17.7-4.6-24c-2.5-6.5-5.9-12-11.4-17.5c-5.5-5.5-11-8.9-17.5-11.4
		c-6.3-2.4-13.5-4.1-24-4.6C131.3,1.1,127.9,1,101,1C74.1,1,70.7,1.1,60.2,1.6c-10.5,0.5-17.7,2.2-24,4.6c-6.5,2.5-12,5.9-17.5,11.4
		c-5.5,5.5-8.9,11-11.4,17.5c-2.4,6.3-4.1,13.5-4.6,24C2.1,69.7,2,73.1,2,100c0,26.9,0.1,30.3,0.6,40.8c0.5,10.5,2.2,17.7,4.6,24
		c2.5,6.5,5.9,12,11.4,17.5c5.5,5.5,11,8.9,17.5,11.4c6.3,2.4,13.5,4.1,24,4.6c10.6,0.5,13.9,0.6,40.8,0.6c26.9,0,30.3-0.1,40.8-0.6
		c10.5-0.5,17.7-2.2,24-4.6c6.5-2.5,12-5.9,17.5-11.4c5.5-5.5,8.9-11,11.4-17.5c2.4-6.3,4.1-13.5,4.6-24c0.5-10.6,0.6-13.9,0.6-40.8
		C200,73.1,199.9,69.7,199.4,59.2z M181.6,140c-0.4,9.7-2.1,14.9-3.4,18.4c-1.8,4.6-3.9,7.9-7.4,11.4c-3.5,3.5-6.8,5.6-11.4,7.4
		c-3.5,1.4-8.7,3-18.4,3.4c-10.4,0.5-13.6,0.6-40,0.6c-26.4,0-29.6-0.1-40-0.6c-9.7-0.4-14.9-2.1-18.4-3.4
		c-4.6-1.8-7.9-3.9-11.4-7.4c-3.5-3.5-5.6-6.8-7.4-11.4c-1.4-3.5-3-8.7-3.4-18.4c-0.5-10.4-0.6-13.6-0.6-40c0-26.4,0.1-29.6,0.6-40
		c0.4-9.7,2.1-14.9,3.4-18.4c1.8-4.6,3.9-7.9,7.4-11.4c3.5-3.5,6.8-5.6,11.4-7.4c3.5-1.4,8.7-3,18.4-3.4c10.4-0.5,13.6-0.6,40-0.6
		c26.4,0,29.6,0.1,40,0.6c9.7,0.4,14.9,2.1,18.4,3.4c4.6,1.8,7.9,3.9,11.4,7.4c3.5,3.5,5.6,6.8,7.4,11.4c1.4,3.5,3,8.7,3.4,18.4
		c0.5,10.4,0.6,13.6,0.6,40C182.2,126.4,182.1,129.6,181.6,140z"/>
	<path class="st0" d="M101,49.2c-28.1,0-50.8,22.8-50.8,50.8c0,28.1,22.8,50.8,50.8,50.8c28.1,0,50.8-22.8,50.8-50.8
		C151.8,71.9,129.1,49.2,101,49.2z M101,133c-18.2,0-33-14.8-33-33c0-18.2,14.8-33,33-33c18.2,0,33,14.8,33,33
		C134,118.2,119.2,133,101,133z"/>
	<circle class="st0" cx="153.8" cy="47.2" r="11.9"/>
</g>
</svg>
