<?xml version="1.0" encoding="utf-8"?>
<!-- Generator: Adobe Illustrator 21.0.0, SVG Export Plug-In . SVG Version: 6.00 Build 0)  -->
<svg version="1.1" id="Layer_1" xmlns="http://www.w3.org/2000/svg" xmlns:xlink="http://www.w3.org/1999/xlink" x="0px" y="0px"
	 viewBox="0 0 200 200" style="enable-background:new 0 0 200 200;" xml:space="preserve">
<style type="text/css">
	.st0{fill:#FFFFFF;}
</style>
<g id="Icons_1_">
	<g id="Black_1_" transform="translate(-301.000000, -469.000000)">
		<path id="Soundcloud" class="st0" d="M301,604.8c0,2.5,0.9,4.4,2.7,5.7c1.8,1.3,3.7,1.7,5.7,1.4c1.9-0.4,3.2-1.1,4-2.1
			c0.8-1,1.2-2.7,1.2-5v-27.2c0-1.9-0.7-3.6-2-4.9c-1.3-1.3-2.9-2-4.9-2c-1.8,0-3.4,0.7-4.8,2c-1.3,1.3-2,3-2,4.9V604.8L301,604.8z
			 M322.3,616.4c0,1.8,0.6,3.2,1.9,4.1c1.3,0.9,2.9,1.4,4.9,1.4c2,0,3.7-0.5,4.9-1.4c1.3-0.9,1.9-2.3,1.9-4.1v-63.3
			c0-1.9-0.7-3.5-2-4.8c-1.3-1.3-2.9-2-4.9-2c-1.8,0-3.4,0.7-4.8,2c-1.3,1.3-2,3-2,4.8V616.4L322.3,616.4z M343.4,619.4
			c0,1.8,0.6,3.2,1.9,4.1c1.3,0.9,3,1.4,5,1.4c2,0,3.6-0.5,4.9-1.4c1.3-0.9,1.9-2.3,1.9-4.1v-57.8c0-1.9-0.7-3.6-2-5
			c-1.3-1.4-2.9-2.1-4.8-2.1c-1.9,0-3.5,0.7-4.9,2.1c-1.4,1.4-2,3-2,5L343.4,619.4L343.4,619.4z M364.7,619.7c0,3.4,2.3,5.2,6.8,5.2
			c4.6,0,6.8-1.7,6.8-5.2V526c0-5.2-1.6-8.2-4.7-8.9c-2-0.5-4,0.1-6,1.8c-2,1.7-3,4.1-3,7.1L364.7,619.7L364.7,619.7z M386.3,622.4
			v-102c0-3.2,1-5.2,2.9-5.8c4.1-1,8.2-1.5,12.3-1.5c9.4,0,18.2,2.2,26.3,6.7c8.1,4.5,14.7,10.6,19.7,18.4c5,7.8,7.9,16.4,8.7,25.7
			c3.8-1.6,7.8-2.4,12-2.4c8.6,0,16,3.1,22.1,9.3c6.1,6.2,9.2,13.6,9.2,22.3c0,8.7-3.1,16.2-9.2,22.4c-6.1,6.2-13.5,9.3-22,9.3
			l-80.4-0.1c-0.6-0.2-1-0.5-1.2-1C386.4,623.2,386.3,622.8,386.3,622.4L386.3,622.4L386.3,622.4z"/>
	</g>
</g>
</svg>
