<?xml version="1.0" encoding="utf-8"?>
<!-- Generator: Adobe Illustrator 21.0.0, SVG Export Plug-In . SVG Version: 6.00 Build 0)  -->
<svg version="1.1" id="Layer_1" xmlns="http://www.w3.org/2000/svg" xmlns:xlink="http://www.w3.org/1999/xlink" x="0px" y="0px"
	 viewBox="0 0 200 200" style="enable-background:new 0 0 200 200;" xml:space="preserve">
<style type="text/css">
	.st0{fill:#FFFFFF;}
</style>
<g id="Icons">
	<g id="Black" transform="translate(-200.000000, -460.000000)">
		<path id="Spotify" class="st0" d="M358.1,550.3c-31.6-18.8-84.5-20.7-114.6-11.4c-4.9,1.5-9.9-1.5-11.4-5.9
			c-1.5-4.9,1.5-9.9,5.9-11.4c35.1-10.4,92.9-8.4,129.4,13.3c4.4,2.5,5.9,8.4,3.5,12.8C368.4,551.3,362.5,552.8,358.1,550.3
			 M357.1,578c-2.5,3.5-6.9,4.9-10.4,2.5c-26.7-16.3-67.2-21.2-98.3-11.4c-4,1-8.4-1-9.4-4.9c-1-4,1-8.4,4.9-9.4
			c36.1-10.9,80.5-5.4,111.1,13.3C358.1,569.6,359.6,574.5,357.1,578 M345.2,605.2c-2,3-5.4,4-8.4,2c-23.2-14.3-52.4-17.3-86.9-9.4
			c-3.5,1-6.4-1.5-7.4-4.4c-1-3.5,1.5-6.4,4.4-7.4c37.5-8.4,70.1-4.9,95.8,10.9C346.2,598.3,346.7,602.2,345.2,605.2 M299.8,462.4
			c-54.3,0-98.8,44.5-98.8,98.8s44.5,98.8,98.8,98.8s98.8-44.5,98.8-98.8S354.6,462.4,299.8,462.4"/>
	</g>
</g>
</svg>
