<?xml version="1.0" encoding="utf-8"?>
<!-- Generator: Adobe Illustrator 21.0.0, SVG Export Plug-In . SVG Version: 6.00 Build 0)  -->
<svg version="1.1" id="Layer_1" xmlns="http://www.w3.org/2000/svg" xmlns:xlink="http://www.w3.org/1999/xlink" x="0px" y="0px"
	 viewBox="0 0 200 200" style="enable-background:new 0 0 200 200;" xml:space="preserve">
<style type="text/css">
	.st0{fill:#FFFFFF;}
</style>
<g id="Icons_1_">
	<g id="Black_1_" transform="translate(-300.000000, -164.000000)">
		<path id="Twitter" class="st0" d="M498.6,200.8c-7.3,3.3-15.2,5.6-23.4,6.6c8.4-5.2,14.9-13.4,17.9-23.1
			c-7.9,4.8-16.6,8.3-25.9,10.1c-7.4-8.1-18-13.2-29.7-13.2c-22.5,0-40.7,18.7-40.7,41.8c0,3.3,0.3,6.5,1,9.5
			c-33.9-1.7-63.9-18.4-84-43.7c-3.5,6.2-5.5,13.4-5.5,21c0,14.5,7.2,27.3,18.1,34.8c-6.7-0.2-13-2.1-18.5-5.2v0.5
			c0,20.2,14,37.1,32.7,41c-3.4,1-7,1.5-10.7,1.5c-2.6,0-5.2-0.3-7.7-0.7c5.2,16.6,20.2,28.7,38.1,29
			c-13.9,11.2-31.5,17.9-50.6,17.9c-3.3,0-6.5-0.2-9.7-0.6c18,11.8,39.5,18.8,62.5,18.8c74.9,0,115.9-63.6,115.9-118.9
			c0-1.8,0-3.6-0.1-5.4C486.2,216.6,493.1,209.2,498.6,200.8"/>
	</g>
</g>
</svg>
