<?xml version="1.0" encoding="utf-8"?>
<!-- Generator: Adobe Illustrator 21.0.0, SVG Export Plug-In . SVG Version: 6.00 Build 0)  -->
<svg version="1.1" id="Layer_1" xmlns="http://www.w3.org/2000/svg" xmlns:xlink="http://www.w3.org/1999/xlink" x="0px" y="0px"
	 viewBox="0 0 200 200" style="enable-background:new 0 0 200 200;" xml:space="preserve">
<style type="text/css">
	.st0{fill:#FFFFFF;}
</style>
<g id="Icons">
	<g id="Black" transform="translate(-200.000000, -368.000000)">
		<path id="Youtube" class="st0" d="M280.6,493.9l0-56l53.5,28.1L280.6,493.9z M398,428.1c0,0-1.9-13.7-7.9-19.8
			c-7.5-7.9-16-8-19.8-8.4c-27.7-2-69.3-2-69.3-2H301c0,0-41.6,0-69.3,2c-3.9,0.5-12.3,0.5-19.8,8.4c-5.9,6.1-7.9,19.8-7.9,19.8
			s-2,16.1-2,32.3v15.1c0,16.1,2,32.3,2,32.3s1.9,13.7,7.9,19.8c7.5,7.9,17.4,7.7,21.8,8.5c15.8,1.5,67.3,2,67.3,2
			s41.6-0.1,69.3-2.1c3.9-0.5,12.3-0.5,19.8-8.4c5.9-6.1,7.9-19.8,7.9-19.8s2-16.1,2-32.3v-15.1C400,444.3,398,428.1,398,428.1
			L398,428.1z"/>
	</g>
</g>
</svg>
