<?xml version="1.0" encoding="utf-8"?>
<!-- Generator: Adobe Illustrator 21.0.0, SVG Export Plug-In . SVG Version: 6.00 Build 0)  -->
<svg version="1.1" id="Layer_1" xmlns="http://www.w3.org/2000/svg" xmlns:xlink="http://www.w3.org/1999/xlink" x="0px" y="0px"
	 viewBox="0 0 481.5 646.5" style="enable-background:new 0 0 481.5 646.5;" xml:space="preserve">
<style type="text/css">
	.st0{fill:#FFFFFF;}
</style>
<g>
	<path class="st0" d="M405.9,80.5c-44-44.1-102.7-68.3-165-68.3s-121,24.2-165,68.3c-44.1,44.1-68.4,102.7-68.4,165
		s24.3,121,68.4,165c44.1,44.1,102.7,68.4,165,68.4s121-24.3,165-68.4c44.1-44.1,68.4-102.7,68.4-165S450,124.6,405.9,80.5z
		 M240.9,471C116.6,471,15.5,369.9,15.5,245.6S116.6,20.2,240.9,20.2s225.4,101.1,225.4,225.4S365.2,471,240.9,471z"/>
	<path class="st0" d="M360.2,356.5c0-0.2-0.1-0.5-0.2-0.7v-0.1L245,83.6c0-0.1-0.1-0.2-0.1-0.2v-0.1c-0.1-0.2-0.2-0.3-0.2-0.4
		c-0.1-0.1-0.1-0.2-0.2-0.3v-0.1v-0.1c-0.1-0.1-0.2-0.2-0.3-0.3c-0.1-0.1-0.2-0.2-0.3-0.3h-0.1h-0.1c-0.1-0.1-0.2-0.1-0.3-0.2
		c-0.1-0.1-0.3-0.2-0.4-0.2h-0.1c-0.1-0.1-0.2-0.1-0.3-0.1h-0.1c-0.2-0.1-0.4-0.1-0.6-0.2c0,0-0.1,0-0.2,0c-0.3-0.1-0.6-0.1-0.8-0.1
		c-0.4,0-0.9,0.1-1.3,0.2h-0.1c-0.1,0-0.2,0.1-0.3,0.1h-0.1c-0.1,0-0.2,0.1-0.3,0.1h-0.1c-0.1,0.1-0.2,0.1-0.4,0.2
		c-0.1,0.1-0.2,0.2-0.3,0.2l-0.1,0.1c-0.1,0.1-0.2,0.2-0.3,0.2c-0.1,0.1-0.2,0.2-0.3,0.3v0.1c-0.1,0.1-0.1,0.2-0.2,0.3
		c-0.1,0.2-0.2,0.3-0.2,0.4v0.1c0,0.1-0.1,0.2-0.1,0.2l-115,272.1c-1,2.3,0.1,4.9,2.4,5.9c0.6,0.2,1.1,0.4,1.8,0.4
		c1.8,0,3.4-1.1,4.2-2.8l63.7-151l91.7,88.1l-44.3,77l-44-75.1c-0.8-1.4-2.3-2.2-3.9-2.2c-0.8,0-1.6,0.2-2.3,0.6
		c-1,0.6-1.8,1.6-2.1,2.8c-0.3,1.2-0.1,2.4,0.5,3.4l47.4,80.9c0.3,1.2,1.1,2.1,2.1,2.7c0.7,0.4,1.5,0.6,2.2,0.6
		c1.6,0,3.1-0.9,3.9-2.3l47.1-82l60.4,58l0.1,0.1c0.2,0.2,0.4,0.3,0.6,0.5l0.1,0.1c0.2,0.1,0.4,0.2,0.6,0.3c0.1,0,0.2,0.1,0.2,0.1
		c0.2,0.1,0.3,0.1,0.5,0.1c0.1,0,0.2,0,0.2,0c0.3,0,0.5,0.1,0.8,0.1s0.7,0,1-0.1c0.2,0,0.4-0.1,0.7-0.2c0.1,0,0.1-0.1,0.2-0.1
		c0.2-0.1,0.4-0.2,0.6-0.3c0.2-0.2,0.5-0.4,0.7-0.6l0.1-0.1c0.2-0.2,0.3-0.4,0.4-0.5c0.1-0.1,0.1-0.2,0.2-0.3v-0.1v-0.1
		c0.1-0.1,0.1-0.2,0.2-0.3c0-0.1,0.1-0.2,0.1-0.4v-0.1v-0.1c0-0.1,0.1-0.2,0.1-0.3s0-0.2,0-0.4v-0.1v-0.1c0-0.1,0-0.2,0-0.4
		c0.4-0.1,0.4-0.2,0.3-0.4C360.3,356.7,360.3,356.6,360.2,356.5z M217.1,217.8c0.2-0.3,0.5-0.7,0.6-1.1l23.2-54.8l23.2,54.8
		c0.7,1.7,2.3,2.8,4.2,2.8c0.6,0,1.2-0.1,1.8-0.4c1.1-0.5,2-1.3,2.4-2.5c0.5-1.1,0.4-2.3,0-3.5l-27.3-64.6c0-0.1-0.1-0.2-0.1-0.2
		v-0.1c-0.1-0.1-0.2-0.3-0.2-0.4c-0.1-0.1-0.1-0.2-0.2-0.3v-0.1v-0.1c-0.1-0.1-0.2-0.2-0.3-0.3c-0.1-0.1-0.2-0.2-0.3-0.2H244
		l-0.1-0.1c-0.1-0.1-0.2-0.2-0.3-0.2c-0.1-0.1-0.3-0.2-0.4-0.2h-0.1c-0.1-0.1-0.2-0.1-0.3-0.2h-0.1c-0.2-0.1-0.4-0.1-0.6-0.2
		c-0.1,0-0.2,0-0.2-0.1c-0.3-0.1-0.5-0.1-0.8-0.1c-0.4,0-0.9,0.1-1.3,0.2h-0.1c-0.1,0-0.2,0.1-0.3,0.1h-0.1
		c-0.1,0.1-0.2,0.1-0.3,0.2h-0.1h-0.1c-0.1,0.1-0.2,0.1-0.3,0.2c-0.1,0.1-0.2,0.2-0.3,0.2h-0.1H238c-0.1,0.1-0.2,0.1-0.3,0.2
		c-0.1,0.1-0.2,0.2-0.3,0.3v0.1v0.1c-0.1,0.1-0.1,0.2-0.2,0.3c-0.1,0.1-0.2,0.3-0.2,0.4v0.1c-0.1,0.1-0.1,0.2-0.1,0.3l-26.5,62.7
		L197.8,199l43.1-102.1L343.2,339L217.1,217.8z"/>
</g>
<path class="st0" d="M72.2,515.7c-0.7-0.8-1.6-1.5-2.7-2c-1.1-0.5-2.1-0.8-3.1-0.8c-0.5,0-1.1,0-1.6,0.1c-0.5,0.1-1.1,0.3-1.5,0.5
	s-0.8,0.5-1.1,1.1c-0.3,0.5-0.4,0.9-0.4,1.6c0,0.5,0.1,1.1,0.4,1.3c0.3,0.4,0.5,0.7,1.1,0.9c0.4,0.3,0.9,0.5,1.6,0.8
	c0.7,0.3,1.3,0.4,2,0.7c1.1,0.4,2.3,0.8,3.5,1.2c1.2,0.4,2.3,1.1,3.2,1.7c0.9,0.7,1.7,1.6,2.4,2.7c0.7,1.1,0.9,2.4,0.9,4
	c0,1.9-0.4,3.5-1.1,4.8c-0.7,1.3-1.6,2.5-2.8,3.3s-2.5,1.6-4,2s-3.1,0.7-4.7,0.7c-2.3,0-4.5-0.4-6.7-1.2c-2.1-0.8-4-2-5.3-3.5
	l5.1-5.2c0.8,0.9,1.9,1.7,3.1,2.4c1.3,0.7,2.5,0.9,3.9,0.9c0.5,0,1.2,0,1.7-0.1c0.5-0.1,1.1-0.3,1.5-0.5c0.4-0.3,0.8-0.7,0.9-1.1
	c0.3-0.4,0.4-1.1,0.4-1.6c0-0.7-0.1-1.1-0.4-1.6c-0.3-0.4-0.8-0.8-1.3-1.2c-0.5-0.4-1.2-0.7-2.1-0.9c-0.8-0.3-1.7-0.7-2.8-0.9
	c-1.1-0.4-2-0.7-3.1-1.2c-0.9-0.4-1.9-1.1-2.7-1.7c-0.8-0.7-1.3-1.6-1.9-2.7c-0.5-1.1-0.7-2.3-0.7-3.7c0-1.7,0.4-3.3,1.1-4.7
	s1.7-2.3,2.9-3.2c1.2-0.8,2.5-1.5,4-1.9c1.5-0.4,2.9-0.5,4.5-0.5c1.9,0,3.7,0.4,5.6,1.1c1.9,0.7,3.6,1.6,4.9,2.9L72.2,515.7z"/>
<polygon class="st0" points="166.5,539.7 158.9,539.7 152.5,517.9 152.4,517.9 146,539.7 138.3,539.7 129.1,507.5 137.5,507.5 
	142.5,528.9 142.7,528.9 148.4,507.5 156.5,507.5 162.3,528.9 162.4,528.9 167.6,507.5 175.7,507.5 "/>
<rect x="234.8" y="507.5" class="st0" width="7.9" height="32.3"/>
<polygon class="st0" points="332.1,539.7 319,518.5 318.9,518.5 319,539.7 311.4,539.7 311.4,507.5 320.3,507.5 333.3,528.5 
	333.4,528.5 333.3,507.5 340.9,507.5 340.9,539.7 "/>
<path class="st0" d="M422.4,539.7c-2.1,0.5-4.4,0.8-6.9,0.8s-4.9-0.4-7.2-1.2c-2.1-0.8-4-2-5.6-3.5c-1.6-1.5-2.8-3.3-3.7-5.3
	c-0.9-2.1-1.3-4.4-1.3-6.9s0.4-4.9,1.3-7.1c0.9-2.1,2.1-3.9,3.7-5.3c1.6-1.5,3.5-2.7,5.6-3.5s4.4-1.2,6.9-1.2s4.9,0.4,7.1,1.2
	c2.1,0.8,4,1.9,5.3,3.1l-4.9,5.6c-0.8-0.9-1.7-1.6-3.1-2.1c-1.2-0.5-2.7-0.8-4.3-0.8c-1.3,0-2.7,0.3-3.7,0.8
	c-1.1,0.5-2.1,1.2-3.1,2.1c-0.8,0.9-1.5,2-2,3.2c-0.5,1.2-0.7,2.5-0.7,4s0.3,2.8,0.7,4.1c0.4,1.2,1.1,2.3,1.9,3.2
	c0.8,0.9,1.9,1.6,3.1,2.1c1.2,0.5,2.7,0.8,4.3,0.8c0.9,0,1.7-0.1,2.7-0.3c0.8-0.1,1.6-0.4,2.3-0.7v-5.9h-6.1v-6.3h13.3v17.1
	C426.4,538.5,424.6,539.2,422.4,539.7z"/>
<path class="st0" d="M73.5,598.6h-7.6l-13.6,32.3h8.4l2.4-6.4h12.5l2.5,6.4H87L73.5,598.6z M65.4,618.4l4.1-11.1l4,11.1H65.4z"/>
<polygon class="st0" points="154.9,605.3 154.9,630.9 147.1,630.9 147.1,605.3 138,605.3 138,598.6 164,598.6 164,605.3 "/>
<path class="st0" d="M252.9,607.6c-0.9-2.1-2.1-3.9-3.7-5.3c-1.6-1.5-3.5-2.5-5.6-3.3c-2.1-0.8-4.5-1.2-7.1-1.2
	c-2.5,0-4.9,0.4-7.1,1.2c-2.1,0.8-4,1.9-5.6,3.3c-1.6,1.5-2.8,3.2-3.7,5.3c-0.9,2.1-1.3,4.5-1.3,7.1c0,2.7,0.4,4.9,1.3,7.1
	c0.9,2.1,2.1,4,3.7,5.5c1.6,1.5,3.5,2.7,5.6,3.5c2.3,0.8,4.5,1.2,7.1,1.2c2.5,0,4.9-0.4,7.1-1.2c2.1-0.8,4-2,5.6-3.5
	c1.6-1.6,2.8-3.3,3.7-5.5c0.9-2.1,1.3-4.5,1.3-7.1C254.2,612.1,253.8,609.7,252.9,607.6z M245.2,618.6c-0.4,1.2-1.1,2.3-1.9,3.2
	c-0.8,0.9-1.9,1.6-2.9,2.1c-1.1,0.5-2.4,0.8-3.7,0.8c-1.3,0-2.5-0.3-3.7-0.8c-1.2-0.5-2.1-1.2-2.9-2.1c-0.8-0.9-1.5-2-1.9-3.2
	c-0.4-1.2-0.7-2.5-0.7-4c0-1.3,0.3-2.7,0.7-3.9c0.4-1.2,1.1-2.1,1.9-3.1c0.8-0.8,1.9-1.5,2.9-2c1.1-0.5,2.4-0.8,3.7-0.8
	c1.3,0,2.5,0.3,3.7,0.8c1.2,0.4,2.1,1.1,2.9,2c0.8,0.8,1.5,1.9,1.9,3.1c0.4,1.2,0.7,2.5,0.7,3.9
	C245.8,616.1,245.7,617.4,245.2,618.6z"/>
<polygon class="st0" points="339,630.9 339.1,608 339,608 330.6,630.9 325.1,630.9 317,608 316.9,608 317,630.9 309.7,630.9 
	309.7,598.6 320.7,598.6 328.1,619.3 328.2,619.3 335.3,598.6 346.6,598.6 346.6,630.9 "/>
<path class="st0" d="M424.6,607c-0.7-0.8-1.6-1.5-2.7-2c-1.1-0.5-2.1-0.8-3.1-0.8c-0.5,0-1.1,0-1.6,0.1c-0.5,0.1-1.1,0.3-1.5,0.5
	c-0.4,0.3-0.8,0.5-1.1,1.1s-0.4,0.9-0.4,1.6c0,0.5,0.1,1.1,0.4,1.3c0.3,0.4,0.5,0.7,1.1,0.9c0.4,0.3,0.9,0.5,1.6,0.8
	c0.7,0.3,1.3,0.4,2,0.7c1.1,0.4,2.3,0.8,3.5,1.2c1.2,0.4,2.3,1.1,3.2,1.7c0.9,0.7,1.7,1.6,2.4,2.7s0.9,2.4,0.9,4
	c0,1.9-0.4,3.5-1.1,4.8c-0.7,1.3-1.6,2.5-2.8,3.3c-1.2,0.8-2.5,1.6-4,2s-3.1,0.7-4.7,0.7c-2.3,0-4.5-0.4-6.7-1.2
	c-2.1-0.8-4-2-5.3-3.5l5.1-5.2c0.8,0.9,1.9,1.7,3.1,2.4c1.3,0.7,2.5,0.9,3.9,0.9c0.5,0,1.2,0,1.7-0.1c0.5-0.1,1.1-0.3,1.5-0.5
	c0.4-0.3,0.8-0.7,0.9-1.1c0.3-0.4,0.4-1.1,0.4-1.6c0-0.7-0.1-1.1-0.4-1.6c-0.3-0.4-0.8-0.8-1.3-1.2c-0.5-0.4-1.2-0.7-2.1-0.9
	c-0.8-0.3-1.7-0.7-2.8-0.9c-1.1-0.4-2-0.7-3.1-1.2c-0.9-0.4-1.9-1.1-2.7-1.7c-0.8-0.7-1.3-1.6-1.9-2.7c-0.5-1.1-0.7-2.3-0.7-3.7
	c0-1.7,0.4-3.3,1.1-4.7c0.7-1.3,1.7-2.3,2.9-3.2c1.2-0.8,2.5-1.5,4-1.9c1.5-0.4,2.9-0.5,4.5-0.5c1.9,0,3.7,0.4,5.6,1.1
	c1.9,0.7,3.6,1.6,4.9,2.9L424.6,607z"/>
</svg>
